<?xml version="1.0" encoding="utf-8"?>
<!-- Generator: Adobe Illustrator 25.2.1, SVG Export Plug-In . SVG Version: 6.00 Build 0)  -->
<svg version="1.1" id="Livello_1" xmlns="http://www.w3.org/2000/svg" xmlns:xlink="http://www.w3.org/1999/xlink" x="0px" y="0px"
	 viewBox="0 0 475.9 294.9" style="enable-background:new 0 0 475.9 294.9;" xml:space="preserve">
<style type="text/css">
	.st0{fill:#1D1D1D;}
	.st1{fill:none;stroke:#FFFFFF;stroke-width:0.5;stroke-miterlimit:10;}
	.st2{fill:#FFFFFF;}
	.st3{fill:none;stroke:url(#SVGID_1_);stroke-width:3;stroke-miterlimit:10;}
	.st4{fill:#3DD9A9;}
	.st5{fill:url(#SVGID_2_);}
	.st6{fill:url(#SVGID_3_);}
</style>
<g>
	<path class="st0" d="M473.5,62.7L243.7,292.5c-3.2,3.2-8.3,3.2-11.5,0L2.4,62.7c-3.2-3.2-3.2-8.3,0-11.5L51.2,2.4
		c3.2-3.2,8.3-3.2,11.5,0l169.5,169.5c3.2,3.2,8.3,3.2,11.5,0L413.2,2.4c3.2-3.2,8.3-3.2,11.5,0l48.9,48.9
		C476.7,54.4,476.7,59.5,473.5,62.7z"/>
	<g>
		<path class="st0" d="M139.3,294.9H8c-4.4,0-8-3.6-8-8V155.6c0-7.1,8.6-10.7,13.7-5.7L145,281.3C150,286.3,146.4,294.9,139.3,294.9
			z"/>
		<path class="st0" d="M475.9,155.6v131.3c0,4.4-3.6,8-8,8H336.6c-7.1,0-10.7-8.6-5.7-13.7l131.3-131.3
			C467.3,144.9,475.9,148.5,475.9,155.6z"/>
	</g>
</g>
</svg>
