<svg xmlns="http://www.w3.org/2000/svg" width="38.061" height="38.061" viewBox="0 0 38.061 38.061">
  <g id="Raggruppa_31" data-name="Raggruppa 31" transform="translate(-190 -803.242)">
    <path id="Tracciato_10" data-name="Tracciato 10" d="M-79.226,232.247h0a19.03,19.03,0,0,1-19.03-19.03h0a19.031,19.031,0,0,1,19.03-19.031h0a19.031,19.031,0,0,1,19.031,19.031h0A19.03,19.03,0,0,1-79.226,232.247Z" transform="translate(288.256 609.056)" fill="#13022c"/>
    <path id="Tracciato_11" data-name="Tracciato 11" d="M-79.226,201.085a12.132,12.132,0,0,0-12.131,12.132,12.131,12.131,0,0,0,12.131,12.131,12.131,12.131,0,0,0,12.132-12.131A12.132,12.132,0,0,0-79.226,201.085Zm0,2.11a9.963,9.963,0,0,1,6.11,2.095,12.264,12.264,0,0,1-5.041,3.72,46.693,46.693,0,0,0-3.526-5.5A9.955,9.955,0,0,1-79.226,203.2Zm-4.521,1.09a45.289,45.289,0,0,1,3.576,5.44,32.182,32.182,0,0,1-8.78,1.119A10.047,10.047,0,0,1-83.747,204.285Zm-5.5,8.931c0-.086.011-.171.013-.258a33.85,33.85,0,0,0,10.058-1.337q.354.72.678,1.448a15.614,15.614,0,0,0-8.428,6.551A9.976,9.976,0,0,1-89.247,213.216Zm10.021,10.023a9.957,9.957,0,0,1-6.15-2.126,13.616,13.616,0,0,1,7.681-6.093,39.653,39.653,0,0,1,2.066,7.541A9.957,9.957,0,0,1-79.226,223.239Zm5.563-1.692a41.612,41.612,0,0,0-1.941-6.972,20.133,20.133,0,0,1,6.267.2A10.026,10.026,0,0,1-73.663,221.547Zm-2.749-8.969c-.247-.569-.5-1.137-.776-1.7a14.336,14.336,0,0,0,5.609-4.127,9.982,9.982,0,0,1,2.347,5.9A21.653,21.653,0,0,0-76.412,212.578Z" transform="translate(288.256 609.056)" fill="#fff"/>
  </g>
</svg>
