<?xml version="1.0" encoding="utf-8"?>
<!-- Generator: Adobe Illustrator 25.2.3, SVG Export Plug-In . SVG Version: 6.00 Build 0)  -->
<svg version="1.1" id="Livello_1" xmlns="http://www.w3.org/2000/svg" xmlns:xlink="http://www.w3.org/1999/xlink" x="0px" y="0px"
	 viewBox="0 0 38.1 38.1" style="enable-background:new 0 0 38.1 38.1;" xml:space="preserve">
<style type="text/css">
	.st0{fill:#FFFFFF;}
</style>
<g id="Raggruppa_31" transform="translate(-190 -803.242)">
	<path id="Tracciato_10" d="M209,841.3L209,841.3c-10.5,0-19-8.5-19-19l0,0c0-10.5,8.5-19,19-19l0,0c10.5,0,19,8.5,19,19l0,0l0,0
		C228.1,832.8,219.5,841.3,209,841.3C209,841.3,209,841.3,209,841.3z"/>
	<path id="Tracciato_11" class="st0" d="M209,810.1c-6.7,0-12.1,5.4-12.1,12.1c0,6.7,5.4,12.1,12.1,12.1c6.7,0,12.1-5.4,12.1-12.1
		c0,0,0,0,0,0C221.2,815.6,215.7,810.1,209,810.1L209,810.1z M209,812.3c2.2,0,4.4,0.7,6.1,2.1c-1.3,1.7-3.1,2.9-5,3.7
		c-1-1.9-2.2-3.8-3.5-5.5C207.4,812.4,208.2,812.3,209,812.3L209,812.3z M204.5,813.3c1.3,1.7,2.5,3.5,3.6,5.4
		c-2.9,0.8-5.8,1.2-8.8,1.1C200,817.1,201.9,814.7,204.5,813.3z M199,822.3c0-0.1,0-0.2,0-0.3c3.4,0.1,6.8-0.4,10.1-1.3
		c0.2,0.5,0.5,1,0.7,1.4c-3.5,1.1-6.5,3.4-8.4,6.6C199.8,826.9,199,824.6,199,822.3z M209,832.3c-2.2,0-4.4-0.7-6.2-2.1
		c1.7-2.9,4.5-5.1,7.7-6.1c0.9,2.4,1.6,5,2.1,7.5C211.5,832.1,210.3,832.3,209,832.3z M214.6,830.6c-0.4-2.4-1.1-4.7-1.9-7
		c2.1-0.3,4.2-0.2,6.3,0.2C218.5,826.6,216.9,829,214.6,830.6z M211.8,821.6c-0.2-0.6-0.5-1.1-0.8-1.7c2.2-0.9,4.1-2.3,5.6-4.1
		c1.4,1.7,2.2,3.7,2.3,5.9C216.7,821.3,214.2,821.3,211.8,821.6z"/>
</g>
</svg>
