<?xml version="1.0" encoding="utf-8"?>
<!-- Generator: Adobe Illustrator 25.2.3, SVG Export Plug-In . SVG Version: 6.00 Build 0)  -->
<svg version="1.1" id="Livello_1" xmlns="http://www.w3.org/2000/svg" xmlns:xlink="http://www.w3.org/1999/xlink" x="0px" y="0px"
	 viewBox="0 0 38.1 38.1" style="enable-background:new 0 0 38.1 38.1;" xml:space="preserve">
<style type="text/css">
	.st0{fill:#FFFFFF;}
</style>
<g id="Raggruppa_33" transform="translate(-290 -803.242)">
	<path id="Tracciato_4" d="M309,841.3L309,841.3c-10.5,0-19-8.5-19-19l0,0c0-10.5,8.5-19,19-19c0,0,0,0,0,0l0,0c10.5,0,19,8.5,19,19
		l0,0l0,0C328.1,832.8,319.5,841.3,309,841.3z"/>
	<g id="Raggruppa_19" transform="translate(283.617 607.56)">
		<path id="Tracciato_5" class="st0" d="M25.4,206.2c2.8,0,3.1,0,4.2,0.1c0.7,0,1.3,0.1,1.9,0.4c0.9,0.4,1.6,1.1,2,2
			c0.2,0.6,0.4,1.3,0.4,1.9c0,1.1,0.1,1.4,0.1,4.2s0,3.1-0.1,4.2c0,0.7-0.1,1.3-0.4,1.9c-0.4,0.9-1.1,1.6-2,2
			c-0.6,0.2-1.3,0.4-1.9,0.4c-1.1,0.1-1.4,0.1-4.2,0.1s-3.1,0-4.2-0.1c-0.7,0-1.3-0.1-1.9-0.4c-0.9-0.4-1.6-1.1-2-2
			c-0.2-0.6-0.4-1.3-0.4-1.9c0-1.1-0.1-1.4-0.1-4.2s0-3.1,0.1-4.2c0-0.7,0.1-1.3,0.4-1.9c0.4-0.9,1.1-1.6,2-2
			c0.6-0.2,1.3-0.4,1.9-0.4C22.3,206.2,22.6,206.2,25.4,206.2 M25.4,204.3c-2.8,0-3.2,0-4.3,0.1c-0.9,0-1.7,0.2-2.5,0.5
			c-1.4,0.5-2.5,1.7-3.1,3.1c-0.3,0.8-0.5,1.7-0.5,2.5c-0.1,1.1-0.1,1.5-0.1,4.3s0,3.2,0.1,4.3c0,0.9,0.2,1.7,0.5,2.5
			c0.5,1.4,1.6,2.5,3.1,3.1c0.8,0.3,1.7,0.5,2.5,0.5c1.1,0.1,1.5,0.1,4.3,0.1s3.2,0,4.3-0.1c0.9,0,1.7-0.2,2.5-0.5
			c1.4-0.5,2.5-1.6,3.1-3.1c0.3-0.8,0.5-1.7,0.5-2.5c0-1.1,0.1-1.5,0.1-4.3s0-3.2-0.1-4.3c0-0.9-0.2-1.7-0.5-2.5
			c-0.5-1.4-1.7-2.5-3.1-3.1c-0.8-0.3-1.7-0.5-2.5-0.5C28.6,204.3,28.2,204.3,25.4,204.3"/>
		<path id="Tracciato_6" class="st0" d="M25.4,209.4c-3,0-5.4,2.4-5.4,5.4s2.4,5.4,5.4,5.4s5.4-2.4,5.4-5.4S28.4,209.4,25.4,209.4
			L25.4,209.4 M25.4,218.2c-1.9,0-3.5-1.6-3.5-3.5c0-1.9,1.6-3.5,3.5-3.5s3.5,1.6,3.5,3.5l0,0C28.9,216.6,27.3,218.2,25.4,218.2"/>
		<path id="Tracciato_7" class="st0" d="M32.2,209.1c0,0.7-0.6,1.3-1.3,1.3s-1.3-0.6-1.3-1.3c0-0.7,0.6-1.3,1.3-1.3l0,0
			C31.7,207.9,32.2,208.5,32.2,209.1"/>
	</g>
</g>
</svg>
