<?xml version="1.0" encoding="utf-8"?>
<!-- Generator: Adobe Illustrator 25.2.3, SVG Export Plug-In . SVG Version: 6.00 Build 0)  -->
<svg version="1.1" id="Livello_1" xmlns="http://www.w3.org/2000/svg" xmlns:xlink="http://www.w3.org/1999/xlink" x="0px" y="0px"
	 viewBox="0 0 38.1 38.1" style="enable-background:new 0 0 38.1 38.1;" xml:space="preserve">
<style type="text/css">
	.st0{fill:#FFFFFF;}
</style>
<g id="Raggruppa_34" transform="translate(-140 -912.939)">
	<path id="Rettangolo_12" d="M159,912.9L159,912.9c10.5,0,19,8.5,19,19v0c0,10.5-8.5,19-19,19h0c-10.5,0-19-8.5-19-19v0
		C140,921.5,148.5,912.9,159,912.9z"/>
	<g id="Raggruppa_22" transform="translate(284.796 716.556)">
		<path id="Tracciato_8" class="st0" d="M-128.4,221c0.5-0.1,1.1-0.3,1.5-0.7c0.4-0.3,0.7-0.6,0.9-1c0.4-0.6,0.6-1.4,0.6-2.1
			c0-0.7-0.2-1.4-0.5-2c-0.4-0.6-0.9-1-1.5-1.2c0.4-0.2,0.7-0.4,1-0.8c0.4-0.6,0.7-1.3,0.6-2c0-0.7-0.2-1.4-0.6-2
			c-0.9-1-2.1-1.5-3.5-1.4h-6.4v13.3h6C-129.7,221.2-129,221.2-128.4,221z M-133.6,210.2h2.9c0.5,0,1.1,0.1,1.6,0.2
			c0.5,0.2,0.8,0.7,0.7,1.2c0,0.5-0.2,0.9-0.5,1.2c-0.4,0.2-0.9,0.4-1.4,0.3h-3.2L-133.6,210.2z M-133.6,218.9v-3.6h3.3
			c0.5,0,0.9,0.1,1.3,0.2c0.6,0.2,0.9,0.8,0.8,1.4c0.1,0.7-0.3,1.3-0.9,1.7c-0.4,0.2-0.9,0.3-1.3,0.2H-133.6z"/>
		<g id="Raggruppa_21">
			<path id="Tracciato_9" class="st0" d="M-123.1,220.3c1,0.8,2.2,1.2,3.5,1.2c1.4,0.1,2.7-0.4,3.7-1.4c0.5-0.5,0.8-1.1,1-1.8h-2.6
				c-0.1,0.3-0.3,0.5-0.5,0.7c-0.4,0.3-0.9,0.5-1.4,0.5c-0.5,0-1-0.1-1.4-0.4c-0.7-0.5-1.1-1.3-1-2.1h7.2c0-0.7,0-1.3-0.1-2
				c-0.1-0.7-0.4-1.4-0.8-2c-0.4-0.6-1-1.1-1.7-1.5c-0.7-0.3-1.5-0.5-2.3-0.5c-1.3-0.1-2.6,0.4-3.5,1.4c-1,1.1-1.5,2.5-1.4,3.9
				C-124.7,217.9-124.2,219.3-123.1,220.3z M-121.3,213.8c0.4-0.4,1-0.6,1.5-0.6c0.6,0,1.1,0.2,1.5,0.5c0.4,0.4,0.7,1,0.7,1.6h-4.4
				C-121.9,214.7-121.7,214.2-121.3,213.8z"/>
			<rect id="Rettangolo_13" x="-122.8" y="208.6" class="st0" width="5.8" height="1.3"/>
		</g>
	</g>
</g>
</svg>
