<?xml version="1.0" encoding="utf-8"?>
<!-- Generator: Adobe Illustrator 25.2.3, SVG Export Plug-In . SVG Version: 6.00 Build 0)  -->
<svg version="1.1" id="Livello_1" xmlns="http://www.w3.org/2000/svg" xmlns:xlink="http://www.w3.org/1999/xlink" x="0px" y="0px"
	 viewBox="0 0 31.5 15.5" style="enable-background:new 0 0 31.5 15.5;" xml:space="preserve">
<style type="text/css">
	.st0{fill:#FFFFFF;}
</style>
<path id="Icon_awesome-long-arrow-alt-right" class="st0" d="M22.1,4.9H0.8C0.4,4.9,0,5.3,0,5.8v3.9c0,0.5,0.4,0.8,0.8,0.8h21.2v3.2
	c0,0.9,0.8,1.7,1.7,1.7c0.4,0,0.9-0.2,1.2-0.5L31,8.9c0.7-0.7,0.7-1.7,0-2.4c0,0,0,0,0,0L25,0.5c-0.7-0.7-1.7-0.7-2.4,0
	c-0.3,0.3-0.5,0.7-0.5,1.2V4.9z"/>
</svg>
