<?xml version="1.0" encoding="utf-8"?>
<!-- Generator: Adobe Illustrator 25.2.1, SVG Export Plug-In . SVG Version: 6.00 Build 0)  -->
<svg version="1.1" id="Livello_1" xmlns="http://www.w3.org/2000/svg" xmlns:xlink="http://www.w3.org/1999/xlink" x="0px" y="0px"
	 viewBox="0 0 475.9 330" style="enable-background:new 0 0 475.9 330;" xml:space="preserve">
<style type="text/css">
	.st0{fill:#1D1D1D;}
	.st1{fill:#3DD9A9;}
	.st2{fill:#FFFFFF;}
	.st3{fill:url(#SVGID_1_);}
	.st4{fill:url(#SVGID_2_);}
	.st5{fill:none;stroke:#FFFFFF;stroke-width:0.5;stroke-miterlimit:10;}
	.st6{fill:none;stroke:url(#SVGID_3_);stroke-width:3;stroke-miterlimit:10;}
	.st7{fill:url(#SVGID_4_);}
	.st8{fill:url(#SVGID_5_);}
</style>
<path class="st0" d="M473.5,80.2L243.7,310.1c-3.2,3.2-8.3,3.2-11.5,0L2.4,80.2c-3.2-3.2-3.2-8.3,0-11.5l48.9-48.9
	c3.2-3.2,8.3-3.2,11.5,0l169.5,169.5c3.2,3.2,8.3,3.2,11.5,0L413.2,19.9c3.2-3.2,8.3-3.2,11.5,0l48.9,48.9
	C476.7,71.9,476.7,77.1,473.5,80.2z"/>
<g>
	<path class="st0" d="M139.3,312.5H8c-4.4,0-8-3.6-8-8V173.1c0-7.1,8.6-10.7,13.7-5.7L145,298.8C150,303.8,146.4,312.5,139.3,312.5z
		"/>
	<path class="st0" d="M475.9,173.1v131.3c0,4.4-3.6,8-8,8H336.6c-7.1,0-10.7-8.6-5.7-13.7l131.3-131.3
		C467.3,162.4,475.9,166,475.9,173.1z"/>
</g>
<path class="st0" d="M1393.2,119.6l-231.3,231.3c-3.9,3.9-10.2,3.9-14.1,0L916.5,119.6c-1.9-1.9-2.9-4.4-2.9-7.1V20.2
	c0-8.9,10.8-13.4,17.1-7.1l217.2,217.2c3.9,3.9,10.2,3.9,14.1,0l217.2-217.2c6.3-6.3,17.1-1.8,17.1,7.1v92.4
	C1396.1,115.2,1395.1,117.8,1393.2,119.6z"/>
<path class="st0" d="M1133.3,187.7l-90.1-90.1c-4-4-4-10.5,0-14.5l90.1-90.1c6.4-6.4,17.5-1.9,17.5,7.2v180.1
	C1150.8,189.6,1139.7,194.2,1133.3,187.7z"/>
<path class="st0" d="M1176-6.9l90.1,90.1c4,4,4,10.5,0,14.5l-90.1,90.1c-6.4,6.4-17.5,1.9-17.5-7.2V0.4
	C1158.5-8.8,1169.6-13.3,1176-6.9z"/>
<rect x="-1262.4" y="-57.4" class="st0" width="1000.6" height="1000.6"/>
<rect x="-1262.4" y="-1124.6" class="st0" width="1000.6" height="1000.6"/>
<g>
	<g>
		<path class="st1" d="M-874.8-773.2l-103.8,103.8c-1.2,1.2-3.1,1.2-4.2,0l-103.8-103.8c-1.2-1.2-1.2-3.1,0-4.2l22.8-22.8
			c1.2-1.2,3.1-1.2,4.2,0l76.8,76.8c1.2,1.2,3.1,1.2,4.2,0l76.8-76.8c1.2-1.2,3.1-1.2,4.2,0l22.8,22.8
			C-873.6-776.3-873.6-774.4-874.8-773.2z"/>
		<path class="st2" d="M-1023.9-667.3h-61.8c-1.7,0-3-1.3-3-3v-61.8c0-2.7,3.2-4,5.1-2.1l61.8,61.8
			C-1019.9-670.6-1021.2-667.3-1023.9-667.3z"/>
		<path class="st2" d="M-872.6-732.1v61.8c0,1.7-1.3,3-3,3h-61.8c-2.7,0-4-3.2-2.1-5.1l61.8-61.8
			C-875.9-736.1-872.6-734.8-872.6-732.1z"/>
	</g>
	<g>
		<linearGradient id="SVGID_1_" gradientUnits="userSpaceOnUse" x1="-980.6295" y1="-581.3486" x2="-980.6295" y2="-448.8338">
			<stop  offset="0" style="stop-color:#3DD9A9"/>
			<stop  offset="1" style="stop-color:#009FE8"/>
		</linearGradient>
		<path class="st3" d="M-874.8-553.5l-103.8,103.8c-1.2,1.2-3.1,1.2-4.2,0l-103.8-103.8c-1.2-1.2-1.2-3.1,0-4.2l22.8-22.8
			c1.2-1.2,3.1-1.2,4.2,0l76.8,76.8c1.2,1.2,3.1,1.2,4.2,0l76.8-76.8c1.2-1.2,3.1-1.2,4.2,0l22.8,22.8
			C-873.6-556.5-873.6-554.6-874.8-553.5z"/>
		<path class="st2" d="M-1023.9-447.6h-61.8c-1.7,0-3-1.3-3-3v-61.8c0-2.7,3.2-4,5.1-2.1l61.8,61.8
			C-1019.9-450.8-1021.2-447.6-1023.9-447.6z"/>
		<path class="st2" d="M-872.6-512.3v61.8c0,1.7-1.3,3-3,3h-61.8c-2.7,0-4-3.2-2.1-5.1l61.8-61.8
			C-875.9-516.4-872.6-515-872.6-512.3z"/>
	</g>
</g>
<g>
	<g>
		<path class="st1" d="M99.3-773.2L-4.4-669.5c-1.2,1.2-3.1,1.2-4.2,0l-103.8-103.8c-1.2-1.2-1.2-3.1,0-4.2l22.8-22.8
			c1.2-1.2,3.1-1.2,4.2,0l76.8,76.8c1.2,1.2,3.1,1.2,4.2,0l76.8-76.8c1.2-1.2,3.1-1.2,4.2,0l22.8,22.8
			C100.5-776.3,100.5-774.4,99.3-773.2z"/>
		<path class="st0" d="M-49.8-667.3h-61.8c-1.7,0-3-1.3-3-3v-61.8c0-2.7,3.2-4,5.1-2.1l61.8,61.8C-45.8-670.6-47.1-667.3-49.8-667.3
			z"/>
		<path class="st0" d="M101.4-732.1v61.8c0,1.7-1.3,3-3,3H36.7c-2.7,0-4-3.2-2.1-5.1l61.8-61.8C98.2-736.1,101.4-734.8,101.4-732.1z
			"/>
	</g>
	<g>
		<linearGradient id="SVGID_2_" gradientUnits="userSpaceOnUse" x1="-6.5673" y1="-581.3486" x2="-6.5673" y2="-448.8338">
			<stop  offset="0" style="stop-color:#3DD9A9"/>
			<stop  offset="1" style="stop-color:#009FE8"/>
		</linearGradient>
		<path class="st4" d="M99.3-553.5L-4.4-449.7c-1.2,1.2-3.1,1.2-4.2,0l-103.8-103.8c-1.2-1.2-1.2-3.1,0-4.2l22.8-22.8
			c1.2-1.2,3.1-1.2,4.2,0l76.8,76.8c1.2,1.2,3.1,1.2,4.2,0l76.8-76.8c1.2-1.2,3.1-1.2,4.2,0l22.8,22.8
			C100.5-556.5,100.5-554.6,99.3-553.5z"/>
		<path class="st0" d="M-49.8-447.6h-61.8c-1.7,0-3-1.3-3-3v-61.8c0-2.7,3.2-4,5.1-2.1l61.8,61.8C-45.8-450.8-47.1-447.6-49.8-447.6
			z"/>
		<path class="st0" d="M101.4-512.3v61.8c0,1.7-1.3,3-3,3H36.7c-2.7,0-4-3.2-2.1-5.1l61.8-61.8C98.2-516.4,101.4-515,101.4-512.3z"
			/>
	</g>
</g>
<rect x="-2378.2" y="-1124.6" class="st0" width="1000.6" height="1000.6"/>
<g>
	<polyline class="st5" points="-2101,-593.8 -2101,-485.8 -2101,-323.8 -2101,-269.8 -2101,-233.8 -2101,-166.3 	"/>
	<polyline class="st5" points="-1943.5,-166.3 -1993,-215.8 -2047,-269.8 -2056,-278.8 -2074,-296.8 -2101,-323.8 -2182,-404.8 
		-2209,-431.8 -2273,-495.8 	"/>
	<polyline class="st5" points="-1997.5,-166.3 -2083,-251.8 -2101,-269.8 -2128,-296.8 -2209,-377.8 -2273,-441.8 	"/>
	<polyline class="st5" points="-2258.5,-166.3 -2209,-215.8 -2155,-269.8 -2146,-278.8 -2128,-296.8 -2101,-323.8 -1993,-431.8 
		-1931,-493.8 	"/>
	<polyline class="st5" points="-1993,-593.8 -2101,-485.8 -2182,-404.8 -2209,-377.8 -2227,-359.8 -2273,-313.8 	"/>
	<polyline class="st5" points="-1931,-439.8 -1993,-377.8 -2074,-296.8 -2101,-269.8 -2119,-251.8 -2204.5,-166.3 	"/>
	<polyline class="st5" points="-1931,-315.8 -1993,-377.8 -2101,-485.8 -2209,-593.8 	"/>
	<polyline class="st5" points="-2168.5,-166.3 -2101,-233.8 -2083,-251.8 -2065,-269.8 -2056,-278.8 -1993,-341.8 -1931,-403.8 	"/>
	<polyline class="st5" points="-2033.5,-166.3 -2101,-233.8 -2119,-251.8 -2137,-269.8 -2146,-278.8 -2209,-341.8 -2227,-359.8 
		-2273,-405.8 	"/>
	<polyline class="st5" points="-1993,-166.3 -1993,-377.8 -1993,-593.8 	"/>
	<polyline class="st5" points="-2209,-166.3 -2209,-215.8 -2209,-269.8 -2209,-341.8 -2209,-377.8 -2209,-431.8 -2209,-593.8 	"/>
	<polyline class="st5" points="-1931,-269.8 -1993,-269.8 -2047,-269.8 -2065,-269.8 -2101,-269.8 -2137,-269.8 -2155,-269.8 
		-2209,-269.8 -2273,-269.8 	"/>
	<g>
		<polygon class="st2" points="-1993,-377.8 -2101,-269.8 -2209,-377.8 -2182,-404.8 -2101,-323.8 -2020,-404.8 		"/>
		<polygon class="st2" points="-2137,-269.8 -2209,-269.8 -2209,-341.8 		"/>
		<polygon class="st2" points="-1993,-341.8 -1993,-269.8 -2065,-269.8 		"/>
	</g>
	<linearGradient id="SVGID_3_" gradientUnits="userSpaceOnUse" x1="-2102.0271" y1="-595.3031" x2="-2102.0271" y2="-164.8031">
		<stop  offset="0" style="stop-color:#3DD9A9"/>
		<stop  offset="1" style="stop-color:#009FE8"/>
	</linearGradient>
	<rect x="-2273" y="-593.8" class="st6" width="342" height="427.5"/>
</g>
<polyline class="st5" points="-2101,-1074.6 -2101,-966.6 -2101,-804.6 -2101,-750.6 -2101,-714.6 -2101,-647.1 "/>
<polyline class="st5" points="-1943.5,-647.1 -1993,-696.6 -2047,-750.6 -2056,-759.6 -2074,-777.6 -2101,-804.6 -2182,-885.6 
	-2209,-912.6 -2273,-976.6 "/>
<polyline class="st5" points="-1997.5,-647.1 -2083,-732.6 -2101,-750.6 -2128,-777.6 -2209,-858.6 -2273,-922.6 "/>
<polyline class="st5" points="-2258.5,-647.1 -2209,-696.6 -2155,-750.6 -2146,-759.6 -2128,-777.6 -2101,-804.6 -1993,-912.6 
	-1931,-974.6 "/>
<polyline class="st5" points="-1993,-1074.6 -2101,-966.6 -2182,-885.6 -2209,-858.6 -2227,-840.6 -2273,-794.6 "/>
<polyline class="st5" points="-1931,-920.6 -1993,-858.6 -2074,-777.6 -2101,-750.6 -2119,-732.6 -2204.5,-647.1 "/>
<polyline class="st5" points="-1931,-796.6 -1993,-858.6 -2101,-966.6 -2209,-1074.6 "/>
<polyline class="st5" points="-2168.5,-647.1 -2101,-714.6 -2083,-732.6 -2065,-750.6 -2056,-759.6 -1993,-822.6 -1931,-884.6 "/>
<polyline class="st5" points="-2033.5,-647.1 -2101,-714.6 -2119,-732.6 -2137,-750.6 -2146,-759.6 -2209,-822.6 -2227,-840.6 
	-2273,-886.6 "/>
<polyline class="st5" points="-1993,-647.1 -1993,-858.6 -1993,-1074.6 "/>
<polyline class="st5" points="-2209,-647.1 -2209,-696.6 -2209,-750.6 -2209,-822.6 -2209,-858.6 -2209,-912.6 -2209,-1074.6 "/>
<polyline class="st5" points="-1931,-750.6 -1993,-750.6 -2047,-750.6 -2065,-750.6 -2101,-750.6 -2137,-750.6 -2155,-750.6 
	-2209,-750.6 -2273,-750.6 "/>
<g>
	<path class="st1" d="M-1515.4-1018.1l-103.8,103.8c-1.2,1.2-3.1,1.2-4.2,0l-103.8-103.8c-1.2-1.2-1.2-3.1,0-4.2l22.8-22.8
		c1.2-1.2,3.1-1.2,4.2,0l76.8,76.8c1.2,1.2,3.1,1.2,4.2,0l76.8-76.8c1.2-1.2,3.1-1.2,4.2,0l22.8,22.8
		C-1514.2-1021.2-1514.2-1019.3-1515.4-1018.1z"/>
	<path class="st2" d="M-1664.5-912.2h-61.8c-1.7,0-3-1.3-3-3V-977c0-2.7,3.2-4,5.1-2.1l61.8,61.8
		C-1660.5-915.5-1661.8-912.2-1664.5-912.2z"/>
	<path class="st2" d="M-1513.3-977v61.8c0,1.7-1.3,3-3,3h-61.8c-2.7,0-4-3.2-2.1-5.1l61.8-61.8C-1516.5-981-1513.3-979.7-1513.3-977
		z"/>
</g>
<g>
	<linearGradient id="SVGID_4_" gradientUnits="userSpaceOnUse" x1="-1621.28" y1="-826.2349" x2="-1621.28" y2="-693.7202">
		<stop  offset="0" style="stop-color:#3DD9A9"/>
		<stop  offset="1" style="stop-color:#009FE8"/>
	</linearGradient>
	<path class="st7" d="M-1515.4-798.4l-103.8,103.8c-1.2,1.2-3.1,1.2-4.2,0l-103.8-103.8c-1.2-1.2-1.2-3.1,0-4.2l22.8-22.8
		c1.2-1.2,3.1-1.2,4.2,0l76.8,76.8c1.2,1.2,3.1,1.2,4.2,0l76.8-76.8c1.2-1.2,3.1-1.2,4.2,0l22.8,22.8
		C-1514.2-801.4-1514.2-799.5-1515.4-798.4z"/>
	<path class="st2" d="M-1664.5-692.5h-61.8c-1.7,0-3-1.3-3-3v-61.8c0-2.7,3.2-4,5.1-2.1l61.8,61.8
		C-1660.5-695.7-1661.8-692.5-1664.5-692.5z"/>
	<path class="st2" d="M-1513.3-757.2v61.8c0,1.7-1.3,3-3,3h-61.8c-2.7,0-4-3.2-2.1-5.1l61.8-61.8
		C-1516.5-761.2-1513.3-759.9-1513.3-757.2z"/>
</g>
<rect x="-1796.3" y="-593.8" class="st2" width="350" height="427.5"/>
<g>
	<g>
		<linearGradient id="SVGID_5_" gradientUnits="userSpaceOnUse" x1="-1621.28" y1="-337.0531" x2="-1621.28" y2="-204.5384">
			<stop  offset="0" style="stop-color:#3DD9A9"/>
			<stop  offset="1" style="stop-color:#009FE8"/>
		</linearGradient>
		<path class="st8" d="M-1515.4-309.2l-103.8,103.8c-1.2,1.2-3.1,1.2-4.2,0l-103.8-103.8c-1.2-1.2-1.2-3.1,0-4.2l22.8-22.8
			c1.2-1.2,3.1-1.2,4.2,0l76.8,76.8c1.2,1.2,3.1,1.2,4.2,0l76.8-76.8c1.2-1.2,3.1-1.2,4.2,0l22.8,22.8
			C-1514.2-312.2-1514.2-310.3-1515.4-309.2z"/>
		<path class="st0" d="M-1664.5-203.3h-61.8c-1.7,0-3-1.3-3-3v-61.8c0-2.7,3.2-4,5.1-2.1l61.8,61.8
			C-1660.5-206.5-1661.8-203.3-1664.5-203.3z"/>
		<path class="st0" d="M-1513.3-268.1v61.8c0,1.7-1.3,3-3,3h-61.8c-2.7,0-4-3.2-2.1-5.1l61.8-61.8
			C-1516.5-272.1-1513.3-270.7-1513.3-268.1z"/>
	</g>
	<g>
		<path class="st1" d="M-1515.4-528.9l-103.8,103.8c-1.2,1.2-3.1,1.2-4.2,0l-103.8-103.8c-1.2-1.2-1.2-3.1,0-4.2l22.8-22.8
			c1.2-1.2,3.1-1.2,4.2,0l76.8,76.8c1.2,1.2,3.1,1.2,4.2,0l76.8-76.8c1.2-1.2,3.1-1.2,4.2,0l22.8,22.8
			C-1514.2-532-1514.2-530.1-1515.4-528.9z"/>
		<path class="st0" d="M-1664.5-423.1h-61.8c-1.7,0-3-1.3-3-3v-61.8c0-2.7,3.2-4,5.1-2.1l61.8,61.8
			C-1660.5-426.3-1661.8-423.1-1664.5-423.1z"/>
		<path class="st0" d="M-1513.3-487.8v61.8c0,1.7-1.3,3-3,3h-61.8c-2.7,0-4-3.2-2.1-5.1l61.8-61.8
			C-1516.5-491.8-1513.3-490.5-1513.3-487.8z"/>
	</g>
</g>
<g>
	<path class="st2" d="M-526.5,80.2l-229.8,229.8c-3.2,3.2-8.3,3.2-11.5,0L-997.6,80.2c-3.2-3.2-3.2-8.3,0-11.5l48.9-48.9
		c3.2-3.2,8.3-3.2,11.5,0l169.5,169.5c3.2,3.2,8.3,3.2,11.5,0l169.5-169.5c3.2-3.2,8.3-3.2,11.5,0l48.9,48.9
		C-523.3,71.9-523.3,77.1-526.5,80.2z"/>
	<g>
		<path class="st2" d="M-860.7,312.5H-992c-4.4,0-8-3.6-8-8V173.1c0-7.1,8.6-10.7,13.7-5.7L-855,298.8
			C-850,303.8-853.6,312.5-860.7,312.5z"/>
		<path class="st2" d="M-524.1,173.1v131.3c0,4.4-3.6,8-8,8h-131.3c-7.1,0-10.7-8.6-5.7-13.7l131.3-131.3
			C-532.7,162.4-524.1,166-524.1,173.1z"/>
	</g>
</g>
<g>
	<path class="st2" d="M-523.7,580L-755,811.3c-3.9,3.9-10.2,3.9-14.1,0L-1000.4,580c-1.9-1.9-2.9-4.4-2.9-7.1v-92.4
		c0-8.9,10.8-13.4,17.1-7.1l217.2,217.2c3.9,3.9,10.2,3.9,14.1,0l217.2-217.2c6.3-6.3,17.1-1.8,17.1,7.1v92.4
		C-520.8,575.5-521.8,578.1-523.7,580z"/>
	<path class="st2" d="M-865.7,814.2h-127.4c-5.7,0-10.2-4.6-10.2-10.2V676.6c0-9.1,11-13.7,17.5-7.2l127.4,127.4
		C-852.1,803.2-856.6,814.2-865.7,814.2z"/>
	<path class="st2" d="M-520.8,676.6V804c0,5.7-4.6,10.2-10.2,10.2h-127.4c-9.1,0-13.7-11-7.2-17.5l127.4-127.4
		C-531.8,662.9-520.8,667.5-520.8,676.6z"/>
</g>
<g id="Hn0rHZ_1_">
	
		<image style="overflow:visible;" width="900" height="1049" id="Hn0rHZ" xlink:href="C1DE14D2AEA77664.jpg"  transform="matrix(0.4932 0 0 0.4932 1470.5986 -147.8736)">
	</image>
</g>
</svg>
