<?xml version="1.0" encoding="utf-8"?>
<!-- Generator: Adobe Illustrator 25.2.3, SVG Export Plug-In . SVG Version: 6.00 Build 0)  -->
<svg version="1.1" id="Livello_1" xmlns="http://www.w3.org/2000/svg" xmlns:xlink="http://www.w3.org/1999/xlink" x="0px" y="0px"
	 viewBox="0 0 40.1 40.1" style="enable-background:new 0 0 40.1 40.1;" xml:space="preserve">
<style type="text/css">
	.st0{fill:none;stroke:#000000;stroke-width:2;}
</style>
<g id="Raggruppa_28" transform="translate(-239 -802.242)">
	<path id="Tracciato_1" class="st0" d="M259,841.3L259,841.3c-10.5,0-19-8.5-19-19c0,0,0,0,0,0l0,0c0-10.5,8.5-19,19-19c0,0,0,0,0,0
		l0,0c10.5,0,19,8.5,19,19c0,0,0,0,0,0l0,0C278.1,832.8,269.5,841.3,259,841.3z"/>
	<g id="Raggruppa_17" transform="translate(291.915 607.56)">
		<g id="Raggruppa_16">
			<rect id="Rettangolo_11" x="-41.5" y="210.5" width="3.9" height="12.7"/>
			<path id="Tracciato_2" d="M-39.6,208.8c1.3,0,2.3-1.1,2.3-2.3c0-1.3-1-2.3-2.3-2.3c-1.3,0-2.3,1.1-2.3,2.3
				C-41.9,207.7-40.9,208.8-39.6,208.8z"/>
		</g>
		<path id="Tracciato_3" d="M-31.3,216.5c0-1.8,0.8-2.9,2.4-2.9c1.4,0,2.1,1,2.1,2.9v6.7h3.9v-8.1c0-3.4-1.9-5.1-4.6-5.1
			c-1.6,0-3,0.8-3.8,2.1v-1.7h-3.8v12.7h3.8V216.5z"/>
	</g>
</g>
</svg>
