<svg xmlns="http://www.w3.org/2000/svg" width="38.061" height="38.061" viewBox="0 0 38.061 38.061">
  <g id="Raggruppa_33" data-name="Raggruppa 33" transform="translate(-290 -803.242)">
    <path id="Tracciato_4" data-name="Tracciato 4" d="M25.413,233.743h0a19.03,19.03,0,0,1-19.03-19.03h0a19.03,19.03,0,0,1,19.03-19.031h0a19.031,19.031,0,0,1,19.031,19.031h0A19.031,19.031,0,0,1,25.413,233.743Z" transform="translate(283.617 607.56)" fill="#13022c"/>
    <g id="Raggruppa_19" data-name="Raggruppa 19" transform="translate(283.617 607.56)">
      <path id="Tracciato_5" data-name="Tracciato 5" d="M25.413,206.158c2.786,0,3.116.011,4.216.061a5.757,5.757,0,0,1,1.938.36,3.449,3.449,0,0,1,1.98,1.98,5.781,5.781,0,0,1,.36,1.937c.05,1.1.061,1.431.061,4.217s-.011,3.116-.061,4.216a5.783,5.783,0,0,1-.36,1.938,3.456,3.456,0,0,1-1.98,1.98,5.763,5.763,0,0,1-1.938.359c-1.1.05-1.429.061-4.216.061s-3.116-.011-4.216-.061a5.763,5.763,0,0,1-1.938-.359,3.456,3.456,0,0,1-1.98-1.98,5.783,5.783,0,0,1-.36-1.938c-.05-1.1-.06-1.43-.06-4.216s.01-3.116.06-4.217a5.781,5.781,0,0,1,.36-1.937,3.449,3.449,0,0,1,1.98-1.98,5.757,5.757,0,0,1,1.938-.36c1.1-.05,1.43-.061,4.216-.061m0-1.88c-2.834,0-3.189.012-4.3.063a7.666,7.666,0,0,0-2.533.485,5.336,5.336,0,0,0-3.051,3.052,7.64,7.64,0,0,0-.485,2.533c-.051,1.113-.063,1.468-.063,4.3s.012,3.189.063,4.3a7.646,7.646,0,0,0,.485,2.533,5.331,5.331,0,0,0,3.051,3.051,7.641,7.641,0,0,0,2.533.485c1.113.051,1.468.063,4.3.063s3.189-.012,4.3-.063a7.641,7.641,0,0,0,2.533-.485,5.336,5.336,0,0,0,3.052-3.051,7.672,7.672,0,0,0,.485-2.533c.05-1.113.062-1.468.062-4.3s-.012-3.189-.062-4.3a7.666,7.666,0,0,0-.485-2.533,5.341,5.341,0,0,0-3.052-3.052,7.666,7.666,0,0,0-2.533-.485c-1.113-.051-1.468-.063-4.3-.063" fill="#fff"/>
      <path id="Tracciato_6" data-name="Tracciato 6" d="M25.413,209.355a5.358,5.358,0,1,0,5.358,5.358,5.358,5.358,0,0,0-5.358-5.358m0,8.836a3.478,3.478,0,1,1,3.478-3.478,3.478,3.478,0,0,1-3.478,3.478" fill="#fff"/>
      <path id="Tracciato_7" data-name="Tracciato 7" d="M32.235,209.143a1.252,1.252,0,1,1-1.252-1.252,1.252,1.252,0,0,1,1.252,1.252" fill="#fff"/>
    </g>
  </g>
</svg>
