<svg xmlns="http://www.w3.org/2000/svg" width="40.061" height="40.061" viewBox="0 0 40.061 40.061">
  <g id="Raggruppa_28" data-name="Raggruppa 28" transform="translate(-239 -802.242)">
    <path id="Tracciato_1" data-name="Tracciato 1" d="M-32.884,233.743h0a19.03,19.03,0,0,1-19.031-19.03h0a19.03,19.03,0,0,1,19.031-19.031h0a19.03,19.03,0,0,1,19.03,19.031h0A19.03,19.03,0,0,1-32.884,233.743Z" transform="translate(291.915 607.56)" fill="none" stroke="#13022c" stroke-width="2"/>
    <g id="Raggruppa_17" data-name="Raggruppa 17" transform="translate(291.915 607.56)">
      <g id="Raggruppa_16" data-name="Raggruppa 16">
        <rect id="Rettangolo_11" data-name="Rettangolo 11" width="3.939" height="12.724" transform="translate(-41.514 210.47)" fill="#13022c"/>
        <path id="Tracciato_2" data-name="Tracciato 2" d="M-39.563,208.8a2.339,2.339,0,0,0,2.329-2.348,2.339,2.339,0,0,0-2.329-2.348,2.339,2.339,0,0,0-2.329,2.348A2.339,2.339,0,0,0-39.563,208.8Z" fill="#13022c"/>
      </g>
      <path id="Tracciato_3" data-name="Tracciato 3" d="M-31.279,216.515c0-1.789.823-2.854,2.4-2.854,1.448,0,2.144,1.023,2.144,2.854v6.679h3.92v-8.056c0-3.408-1.932-5.056-4.63-5.056a4.437,4.437,0,0,0-3.834,2.1V210.47h-3.778v12.724h3.778Z" fill="#13022c"/>
    </g>
  </g>
</svg>
