<svg xmlns="http://www.w3.org/2000/svg" width="40.061" height="40.061" viewBox="0 0 40.061 40.061">
  <g id="Raggruppa_26" data-name="Raggruppa 26" transform="translate(-138.5 -802.5)">
    <rect id="Rettangolo_12" data-name="Rettangolo 12" width="38.061" height="38.061" rx="19.03" transform="translate(139.5 803.5)" fill="none" stroke="#13022c" stroke-width="2"/>
    <g id="Raggruppa_22" data-name="Raggruppa 22" transform="translate(284.296 607.117)">
      <path id="Tracciato_8" data-name="Tracciato 8" d="M-128.408,221.027a3.66,3.66,0,0,0,1.506-.669,3.7,3.7,0,0,0,.944-1.048,3.9,3.9,0,0,0,.593-2.125,3.538,3.538,0,0,0-.519-1.953,2.967,2.967,0,0,0-1.54-1.175,3.174,3.174,0,0,0,1.017-.76,2.966,2.966,0,0,0,.617-1.961,3.39,3.39,0,0,0-.612-2.035,4.088,4.088,0,0,0-3.453-1.418H-136.3v13.325h6.005A9.2,9.2,0,0,0-128.408,221.027Zm-5.23-10.83h2.9a5.006,5.006,0,0,1,1.575.208,1.192,1.192,0,0,1,.716,1.229,1.256,1.256,0,0,1-.542,1.171,2.674,2.674,0,0,1-1.409.33h-3.239Zm0,8.7v-3.553h3.28a3.359,3.359,0,0,1,1.332.226,1.43,1.43,0,0,1,.849,1.428,1.68,1.68,0,0,1-.876,1.664,3.138,3.138,0,0,1-1.349.235Z" fill="#13022c"/>
      <g id="Raggruppa_21" data-name="Raggruppa 21">
        <path id="Tracciato_9" data-name="Tracciato 9" d="M-123.109,220.33a5.37,5.37,0,0,0,3.471,1.213,4.785,4.785,0,0,0,3.707-1.438,3.217,3.217,0,0,0,.956-1.781h-2.631a2.167,2.167,0,0,1-.53.678,2.184,2.184,0,0,1-1.431.452,2.614,2.614,0,0,1-1.42-.371,2.365,2.365,0,0,1-1.031-2.08h7.177a12.6,12.6,0,0,0-.085-1.955,4.827,4.827,0,0,0-.785-2.037,4.008,4.008,0,0,0-1.7-1.458,5.615,5.615,0,0,0-2.317-.461,4.753,4.753,0,0,0-3.524,1.367,5.332,5.332,0,0,0-1.357,3.926A4.78,4.78,0,0,0-123.109,220.33Zm1.841-6.551a2.046,2.046,0,0,1,1.538-.562,2.261,2.261,0,0,1,1.528.53,2.151,2.151,0,0,1,.687,1.557h-4.439A2.677,2.677,0,0,1-121.268,213.779Z" fill="#13022c"/>
        <rect id="Rettangolo_13" data-name="Rettangolo 13" width="5.791" height="1.345" transform="translate(-122.794 208.649)" fill="#13022c"/>
      </g>
    </g>
  </g>
</svg>
